<?xml version="1.0" encoding="UTF-8" standalone="no"?>
<!-- Created with Inkscape (http://www.inkscape.org/) -->

<svg
   xmlns:dc="http://purl.org/dc/elements/1.1/"
   xmlns:cc="http://creativecommons.org/ns#"
   xmlns:rdf="http://www.w3.org/1999/02/22-rdf-syntax-ns#"
   xmlns:svg="http://www.w3.org/2000/svg"
   xmlns="http://www.w3.org/2000/svg"
   xmlns:sodipodi="http://sodipodi.sourceforge.net/DTD/sodipodi-0.dtd"
   xmlns:inkscape="http://www.inkscape.org/namespaces/inkscape"
   width="1108"
   height="1108"
   viewBox="0 0 293.15803 293.15773"
   version="1.1"
   id="svg4499"
   inkscape:version="0.92.1 r15371"
   sodipodi:docname="rtdlogo.svg"
   inkscape:export-filename="B:\Desktop\rtdlogo.png"
   inkscape:export-xdpi="50.799999"
   inkscape:export-ydpi="50.799999">
  <defs
     id="defs4493" />
  <sodipodi:namedview
     id="base"
     pagecolor="#ffffff"
     bordercolor="#666666"
     borderopacity="1.0"
     inkscape:pageopacity="0.0"
     inkscape:pageshadow="2"
     inkscape:zoom="0.49497475"
     inkscape:cx="250.17586"
     inkscape:cy="355.62239"
     inkscape:document-units="mm"
     inkscape:current-layer="layer1"
     showgrid="true"
     units="px"
     inkscape:window-width="1920"
     inkscape:window-height="1017"
     inkscape:window-x="1272"
     inkscape:window-y="-8"
     inkscape:window-maximized="1"
     fit-margin-top="0"
     fit-margin-left="0"
     fit-margin-right="0"
     fit-margin-bottom="0"
     inkscape:pagecheckerboard="false"
     showborder="true"
     borderlayer="false"
     inkscape:showpageshadow="true"
     showguides="true">
    <inkscape:grid
       type="axonomgrid"
       id="grid5046"
       units="px"
       empspacing="10"
       empcolor="#ff3f3f"
       empopacity="0.25098039"
       spacingy="4.2333334"
       originx="0"
       originy="16.933298" />
  </sodipodi:namedview>
  <metadata
     id="metadata4496">
    <rdf:RDF>
      <cc:Work
         rdf:about="">
        <dc:format>image/svg+xml</dc:format>
        <dc:type
           rdf:resource="http://purl.org/dc/dcmitype/StillImage" />
        <dc:title></dc:title>
      </cc:Work>
    </rdf:RDF>
  </metadata>
  <g
     inkscape:label="Whole"
     id="layer1"
     transform="translate(-146.64698,186.65776)"
     inkscape:groupmode="layer"
     style="display:inline">
    <path
       style="fill:#99ccff;fill-opacity:1;stroke:none;stroke-width:0.79374993px;stroke-linecap:butt;stroke-linejoin:miter;stroke-opacity:1"
       d="M 183.30889,26.066661 293.2941,-37.433327 403.27935,26.066661 293.2941,89.566652 Z"
       id="path5092"
       inkscape:connector-curvature="0"
       inkscape:label="Bottom" />
    <path
       style="fill:#3e4e5d;fill-opacity:1;stroke:none;stroke-width:0.79374993px;stroke-linecap:butt;stroke-linejoin:miter;stroke-opacity:1"
       d="M 293.2941,-164.43332 V -37.433327 L 183.30889,26.066661 V -100.93333 Z"
       id="path5094"
       inkscape:connector-curvature="0"
       inkscape:label="Left" />
    <path
       style="fill:#183651;fill-opacity:1;stroke:none;stroke-width:0.79374993px;stroke-linecap:butt;stroke-linejoin:miter;stroke-opacity:1"
       d="M 293.2941,-37.433327 403.27935,-100.93333 V 26.066661 L 293.2941,89.566652 Z"
       id="path5090"
       inkscape:connector-curvature="0"
       inkscape:label="Right" />
    <path
       style="fill:#2f658d;fill-opacity:1;stroke:none;stroke-width:0.79374993px;stroke-linecap:butt;stroke-linejoin:miter;stroke-opacity:1"
       d="M 293.2941,-164.43332 403.27935,-100.93333 293.2941,-37.433327 183.30889,-100.93333 Z"
       id="path5098"
       inkscape:connector-curvature="0"
       inkscape:label="Top"
       inkscape:export-xdpi="50.799999"
       inkscape:export-ydpi="50.799999" />
    <g
       id="g5106"
       style="fill:#61dafb"
       transform="matrix(0.26458306,0,0,0.26458306,392.9754,-256.29724)">
      <path
         id="path5100"
         d="m 7.3575657,869.58519 c -4.048409,-21.9962 -35.5425277,-26.87377 -80.3253377,-15.31902 1.86303,-48.69448 -8.78911,-80.42991 -29.970248,-80.3303 -4.89039,-0.0217 -10.27915,1.74182 -15.91937,4.9982 l 2.77783,15.09277 c 3.1259,-1.80475 5.75232,-2.64726 8.07068,-2.71293 10.213428,-0.0567 17.922358,17.72967 19.554888,45.38839 0.42342,6.79355 0.43345,14.20013 0.19657,21.89901 -13.916998,4.4411 -28.920148,10.3329 -44.508868,17.53611 -11.47833,-7.22438 -23.08467,-13.10202 -34.49738,-17.51914 18.3788,-33.29734 37.10507,-56.53778 51.23961,-64.69836 l -2.77783,-15.09277 c -18.68748,10.78922 -40.7096,38.1787 -61.20978,75.4711 -28.94577,-8.59503 -55.82596,-7.60099 -74.51344,3.18823 l 2.77782,15.09277 c 14.06658,-8.12134 36.98395,-8.99874 62.88656,-1.41703 -7.6825,15.44175 -15.11587,32.23708 -21.84935,49.97604 -15.05875,10.4911 -29.14011,21.3913 -41.84882,32.3974 -2.80862,-5.8657 -5.17214,-11.7637 -7.14605,-17.5872 -7.95229,-24.01 -7.71055,-46.38666 0.47922,-57.02997 1.81443,-2.39526 4.36499,-4.46681 7.4909,-6.27156 l -2.77783,-15.09277 c -5.70817,3.29562 -10.6485,7.49562 -14.66014,12.6569 -17.07724,21.98884 -15.06777,58.6392 2.68313,95.8599 -39.87601,37.39794 -63.57339,74.06544 -59.53744,95.99394 4.0484,21.9962 35.54252,26.8737 80.32533,15.319 -1.86303,48.6945 8.78911,80.4299 29.97025,80.3303 4.89039,0.022 10.27915,-1.7418 15.98732,-5.0375 18.68748,-10.7892 40.7096,-38.1786 61.20978,-75.471 28.94576,8.595 55.825958,7.601 74.513448,-3.1882 5.70817,-3.2957 10.64849,-7.4957 14.66014,-12.657 17.07724,-21.9888 15.06777,-58.6392 -2.68313,-95.85984 39.752559,-37.2518 63.437483,-73.98696 59.4015377,-95.91547 z m -96.7853077,5.93911 c -0.90741,10.18243 -2.37659,20.9887 -4.25349,32.0304 -3.78266,-3.8059 -7.701238,-7.5333 -11.891628,-11.1038 -4.12243,-3.6097 -8.42382,-6.9663 -12.70029,-10.18761 9.91112,-4.14987 19.544758,-7.76518 28.845408,-10.73899 z m -17.856838,90.04876 c -3.61879,12.197 -7.46072,23.9988 -11.6186,35.30924 -9.96328,6.7256 -20.13722,13.1237 -30.4663,19.0872 -10.26112,5.9242 -20.60944,11.3747 -30.81618,16.3692 -7.12257,-4.7977 -14.20887,-10.2151 -21.17851,-16.2242 -6.79635,-5.8843 -13.14195,-12.1788 -19.09226,-18.7763 2.54398,-11.50164 5.63161,-23.31724 9.09638,-35.12584 3.61878,-12.1971 7.46071,-23.9989 11.61859,-35.3093 9.96329,-6.7256 20.13721,-13.1237 30.46629,-19.08716 10.26113,-5.9242 20.60946,-11.3747 30.8162,-16.3691 7.12255,4.7976 14.20886,10.2151 21.1785,16.2241 6.79636,5.88436 13.14195,12.17876 19.092268,18.77626 -2.611948,11.5409 -5.631618,23.3172 -9.096378,35.1259 z m 20.329928,-21.4709 c 5.33873,6.9506 10.13382,14.215 14.33546,21.5226 -8.50343,7.3054 -17.54482,14.547 -27.00072,21.5786 2.37062,-7.1338 4.71631,-14.403 6.83323,-21.6898 2.12934,-7.2192 4.04243,-14.3884 5.83203,-21.4114 z m -55.614618,111.99794 c -7.5156,-2.8486 -15.16822,-6.4417 -22.87746,-10.7508 6.16573,-3.2603 12.45491,-6.6667 18.77467,-10.3155 6.38772,-3.6879 12.68258,-7.472 18.80415,-11.3807 -4.65847,11.4497 -9.64538,22.3402 -14.70136,32.447 z m -57.89509,-10.6741 c -9.91112,4.1499 -19.54476,7.7652 -28.8454,10.739 0.90741,-10.1824 2.37658,-20.9887 4.25348,-32.0303 3.78267,3.8058 7.70124,7.5333 11.89163,11.1037 4.1904,3.5705 8.42382,6.9664 12.70029,10.1876 z m 24.29612,-169.83682 c 7.51561,2.84862 15.16823,6.44172 22.87746,10.75086 -6.16572,3.26026 -12.4549,6.66676 -18.77466,10.31546 -6.38773,3.6879 -12.68259,7.472 -18.80416,11.3807 4.65848,-11.4497 9.64539,-22.3402 14.70136,-32.44702 z m -42.94936,68.89668 c -2.37061,7.1338 -4.71631,14.403 -6.83323,21.6899 -2.12934,7.2192 -4.05488,14.3206 -5.84448,21.3436 -5.33873,-6.9506 -10.13382,-14.2149 -14.33546,-21.5226 8.51588,-7.2376 17.55728,-14.4793 27.01317,-21.5109 z m -45.9031,120.24244 c -25.93683,3.6689 -43.96483,-0.7474 -45.92051,-11.3733 -1.9557,-10.6258 11.127,-33.0787 33.3144,-57.11954 5.38319,-5.8782 11.35984,-11.7996 17.56528,-17.7034 6.3149,11.0291 13.95263,21.89344 22.87584,32.38994 -3.66084,17.6871 -6.16078,34.3295 -7.53718,49.7243 -7.11365,1.786 -13.9249,3.1728 -20.29783,4.082 z m 54.36003,75.6078 c -10.21343,0.056 -17.92236,-17.7296 -19.55488,-45.3883 -0.42343,-6.7936 -0.43345,-14.2001 -0.19658,-21.899 13.917,-4.4411 28.92015,-10.3329 44.50888,-17.5362 11.47832,7.2244 23.08466,13.1021 34.49737,17.5192 -18.37881,33.2973 -37.10507,56.5378 -51.2396,64.6984 -3.07041,1.6978 -5.7648,2.5795 -8.01519,2.6059 z M -58.964602,995.70156 c 7.95229,24.01004 7.71055,46.38674 -0.47923,57.03004 -1.81441,2.3953 -4.36498,4.4668 -7.49089,6.2715 -14.06657,8.1214 -36.983948,8.9988 -62.886548,1.4171 7.6825,-15.4418 15.11587,-32.2371 21.84934,-49.9761 15.058748,-10.49114 29.140118,-21.39134 41.848818,-32.39744 2.82107,5.9334 5.25255,11.7922 7.15851,17.6549 z m 17.85391,-60.2478 c -5.38319,5.8783 -11.35984,11.7997 -17.56528,17.7034 -6.3149,-11.0291 -13.95264,-21.8934 -22.87584,-32.3899 3.66083,-17.68706 6.16077,-34.32946 7.53718,-49.72425 7.11365,-1.78602 13.92489,-3.17283 20.36578,-4.12121 25.93684,-3.6689 43.9648286,0.74737 45.9205188,11.37323 1.888,10.66497 -11.1949698,33.11797 -33.3823588,57.15873 z M -254.59307,857.52572 Z"
         inkscape:connector-curvature="0"
         style="stroke-width:0.71329623" />
      <ellipse
         id="circle5102"
         cy="805.32886"
         cx="-345.54053"
         rx="35.859455"
         ry="31.534275"
         transform="matrix(0.8660254,-0.5,0.17364818,0.98480775,0,0)"
         style="stroke-width:0.73582929" />
      <path
         id="path5104"
         d="M 520.5,78.1 Z"
         inkscape:connector-curvature="0" />
    </g>
  </g>
</svg>
